<?xml version="1.0" encoding="UTF-8"?>
<svg id="_图层_2" xmlns="http://www.w3.org/2000/svg" version="1.1" viewBox="0 0 156.9 64">
  <!-- 文字：一体化 元数据（Noto Sans SC SemiBold，SIL OFL 开源许可，轮廓化，无字体依赖） -->
  <defs>
    <style>
      .st0 {
        fill: url(#_未命名的渐变);
      }

      .st1 {
        fill: #1d2088;
        fill-rule: evenodd;
      }

      .st2 {
        fill: #fff;
        stroke: #fff;
        stroke-miterlimit: 10;
      }
    </style>
    <linearGradient id="_未命名的渐变" data-name="未命名的渐变" x1="26.5" y1="-685.6" x2="26.5" y2="-730.8" gradientTransform="translate(0 -666.8) scale(1 -1)" gradientUnits="userSpaceOnUse">
      <stop offset="0" stop-color="#31237f"/>
      <stop offset="1" stop-color="#094"/>
    </linearGradient>
    <linearGradient id="_文字渐变" data-name="文字渐变" x1="109" y1="28.8" x2="109" y2="12.3" gradientUnits="userSpaceOnUse">
      <stop offset="0" stop-color="#31237f"/>
      <stop offset="1" stop-color="#094"/>
    </linearGradient>
  </defs>
  <g id="_图层_1-2">
    <path class="st0" d="M0,13v37.7c.1,7.4,11.9,13.3,26.5,13.3s26.4-6,26.5-13.3V13c0,7.4-11.9,13.3-26.5,13.3S.1,20.4,0,13Z"/>
    <path class="st1" d="M26.5,27c14.6,0,26.5-6,26.5-13.5S41.1,0,26.5,0,0,6,0,13.5s11.9,13.5,26.5,13.5ZM26.6,20.4c7.3,0,13.2-3,13.2-6.8s-5.9-6.8-13.2-6.8-13.2,3-13.2,6.8,5.9,6.8,13.2,6.8Z"/>
  </g>
  <path class="st2" d="M40.4,52.6c-.9,0-1.7-.3-2.3-.9l-12.6-11.9-12.6,11.9c-.5.5-1,.7-1.6.9-.6.1-1.3,0-1.9-.2-.6-.3-1.1-.7-1.5-1.2-.4-.5-.6-1.1-.6-1.8v-13.6h3.9v12.1l12-11.3c.6-.6,1.4-.9,2.3-.9s1.7.3,2.3.9l12,11.3v-12.1h3.9v13.6c0,.7-.2,1.3-.6,1.8-.4.5-.9.9-1.5,1.2-.4.2-.8.2-1.2.2Z"/>
  <g fill="url(#_文字渐变)">
    <g transform="translate(84.25,26.80) scale(0.016500,-0.016500)"><path d="M39.9493408203125 448.542724609375H963.04052734375V331.1171875H39.9493408203125Z"/></g>
    <g transform="translate(100.75,26.80) scale(0.016500,-0.016500)"><path d="M229.7467041015625 843.0810546875 330.781494140625 812.6295166015625Q302.1114501953125 727.95947265625 261.9312744140625 643.4341430664062Q221.7510986328125 558.9088134765625 174.90087890625 483.21343994140625Q128.0506591796875 407.51806640625 77.3704833984375 350.177978515625Q72.6903076171875 363.2286376953125 61.9898681640625 384.14471435546875Q51.2894287109375 405.060791015625 39.75396728515625 426.3118896484375Q28.218505859375 447.56298828125 18.1881103515625 460.6136474609375Q61.1678466796875 507.2532958984375 100.6475830078125 568.8878784179688Q140.1273193359375 630.5224609375 173.11212158203125 700.822021484375Q206.096923828125 771.12158203125 229.7467041015625 843.0810546875ZM145.8277587890625 571.9189453125 247.20263671875 673.623779296875 247.862548828125 672.623779296875V-85.421142578125H145.8277587890625ZM570.2083740234375 842.40087890625H674.92333984375V-80.0709228515625H570.2083740234375ZM308.12158203125 661.9537353515625H958.3907470703125V559.5889892578125H308.12158203125ZM429.162109375 183.101318359375H817.020263671875V86.7669677734375H429.162109375ZM715.64404296875 605.720703125Q742.623779296875 519.76123046875 784.4284057617188 433.781494140625Q826.2330322265625 347.8017578125 877.362548828125 274.3017578125Q928.4920654296875 200.8017578125 983.7916259765625 151.101318359375Q965.060791015625 137.0506591796875 941.3096923828125 112.96453857421875Q917.55859375 88.87841796875 903.177978515625 67.4674072265625Q847.87841796875 125.858154296875 797.7539672851562 208.7286376953125Q747.6295166015625 291.59912109375 707.1700439453125 387.95440673828125Q666.7105712890625 484.3096923828125 638.060791015625 583.31982421875ZM534.8277587890625 613.4312744140625 612.76123046875 591.700439453125Q583.781494140625 488.6700439453125 541.6570434570312 389.9696044921875Q499.5325927734375 291.2691650390625 447.56805419921875 207.39361572265625Q395.603515625 123.51806640625 335.943603515625 64.4674072265625Q327.2431640625 77.177978515625 313.6925048828125 92.73370361328125Q300.141845703125 108.2894287109375 285.5911865234375 122.67510986328125Q271.04052734375 137.060791015625 259 145.76123046875Q317.31982421875 195.7916259765625 369.7894287109375 271.1317138671875Q422.259033203125 346.4718017578125 465.22357177734375 435.29669189453125Q508.1881103515625 524.12158203125 534.8277587890625 613.4312744140625Z"/></g>
    <g transform="translate(117.25,26.80) scale(0.016500,-0.016500)"><path d="M505.1982421875 831.44140625H620.9638671875V105.3140869140625Q620.9638671875 61.623779296875 629.7735595703125 49.7938232421875Q638.583251953125 37.9638671875 670.5325927734375 37.9638671875Q678.182373046875 37.9638671875 696.1266479492188 37.9638671875Q714.0709228515625 37.9638671875 735.3350219726562 37.9638671875Q756.59912109375 37.9638671875 774.7033081054688 37.9638671875Q792.8074951171875 37.9638671875 801.4471435546875 37.9638671875Q825.07666015625 37.9638671875 836.7264404296875 55.28875732421875Q848.376220703125 72.6136474609375 853.8711547851562 117.763427734375Q859.3660888671875 162.9132080078125 862.3660888671875 246.222900390625Q876.7467041015625 235.8524169921875 895.4826049804688 225.31695556640625Q914.218505859375 214.781494140625 933.6244506835938 206.7510986328125Q953.0303955078125 198.720703125 968.7510986328125 194.7105712890625Q962.740966796875 98.0101318359375 948.04052734375 40.479736328125Q933.340087890625 -17.0506591796875 901.6244506835938 -43.0709228515625Q869.9088134765625 -69.0911865234375 811.177978515625 -69.0911865234375Q803.837890625 -69.0911865234375 788.1982421875 -69.0911865234375Q772.55859375 -69.0911865234375 752.9341430664062 -69.0911865234375Q733.3096923828125 -69.0911865234375 713.520263671875 -69.0911865234375Q693.7308349609375 -69.0911865234375 678.2561645507812 -69.0911865234375Q662.781494140625 -69.0911865234375 655.44140625 -69.0911865234375Q597.0101318359375 -69.0911865234375 564.2894287109375 -53.38568115234375Q531.5687255859375 -37.68017578125 518.3834838867188 0.9110107421875Q505.1982421875 39.502197265625 505.1982421875 107.3140869140625ZM851.1475830078125 712.8828125 954.182373046875 642.6092529296875Q878.12158203125 536.538330078125 782.5911865234375 445.17291259765625Q687.060791015625 353.8074951171875 584.7257690429688 282.1475830078125Q482.3907470703125 210.4876708984375 384.0810546875 162.1982421875Q375.720703125 174.23876953125 362.1700439453125 189.1295166015625Q348.619384765625 204.020263671875 333.56365966796875 218.740966796875Q318.5079345703125 233.461669921875 304.457275390625 243.8321533203125Q400.7568359375 289.12158203125 500.916748046875 359.1114501953125Q601.07666015625 429.101318359375 692.4268798828125 519.1266479492188Q783.777099609375 609.1519775390625 851.1475830078125 712.8828125ZM292.0867919921875 849.781494140625 400.4920654296875 814.979736328125Q365.4920654296875 730.3096923828125 317.31695556640625 646.2894287109375Q269.141845703125 562.2691650390625 214.1317138671875 488.7489013671875Q159.12158203125 415.2286376953125 101.781494140625 359.55859375Q95.76123046875 372.6092529296875 83.220703125 393.1903076171875Q70.68017578125 413.7713623046875 56.96453857421875 434.8524169921875Q43.2489013671875 455.9334716796875 32.5484619140625 467.984130859375Q84.1881103515625 513.9537353515625 132.83282470703125 574.92333984375Q181.4775390625 635.8929443359375 222.457275390625 706.3574829101562Q263.43701171875 776.822021484375 292.0867919921875 849.781494140625ZM188.43701171875 579.177978515625 300.862548828125 691.2735595703125 301.5224609375 690.2735595703125V-86.4110107421875H188.43701171875Z"/></g>
  </g>
  <g fill="#0b318f">
    <g transform="translate(84.25,49.00) scale(0.016500,-0.016500)"><path d="M566.8074951171875 432.279296875H677.5528564453125V74.623779296875Q677.5528564453125 46.603515625 684.8676147460938 39.103515625Q692.182373046875 31.603515625 718.141845703125 31.603515625Q724.1317138671875 31.603515625 737.5861206054688 31.603515625Q751.04052734375 31.603515625 767.3147583007812 31.603515625Q783.5889892578125 31.603515625 797.8733520507812 31.603515625Q812.15771484375 31.603515625 820.137451171875 31.603515625Q838.1070556640625 31.603515625 847.0918579101562 44.263427734375Q856.07666015625 56.92333984375 860.2416381835938 93.903076171875Q864.4066162109375 130.8828125 866.07666015625 204.5123291015625Q878.4471435546875 195.48193359375 896.177978515625 186.28656005859375Q913.9088134765625 177.0911865234375 932.8096923828125 170.06585693359375Q951.7105712890625 163.04052734375 965.76123046875 159.0303955078125Q960.4110107421875 70.659912109375 947.0455932617188 20.799560546875Q933.68017578125 -29.060791015625 906.1295166015625 -49.240966796875Q878.578857421875 -69.421142578125 829.51806640625 -69.421142578125Q821.5079345703125 -69.421142578125 803.7083740234375 -69.421142578125Q785.9088134765625 -69.421142578125 765.4544067382812 -69.421142578125Q745 -69.421142578125 727.3654174804688 -69.421142578125Q709.7308349609375 -69.421142578125 701.720703125 -69.421142578125Q648.619384765625 -69.421142578125 619.2337036132812 -56.21563720703125Q589.8480224609375 -43.0101318359375 578.3277587890625 -11.59405517578125Q566.8074951171875 19.822021484375 566.8074951171875 73.9537353515625ZM54.6092529296875 500.222900390625H947.7308349609375V395.8480224609375H54.6092529296875ZM144.6396484375 774.48193359375H857.6700439453125V671.1070556640625H144.6396484375ZM291.376220703125 418.2489013671875H406.4718017578125Q400.141845703125 335.259033203125 386.14691162109375 260.7691650390625Q372.1519775390625 186.279296875 340.98699951171875 121.9493408203125Q309.822021484375 57.619384765625 252.30682373046875 5.279296875Q194.7916259765625 -47.060791015625 101.7510986328125 -84.0810546875Q93.0506591796875 -64 73.48480224609375 -38.5687255859375Q53.9189453125 -13.137451171875 35.51806640625 2.2532958984375Q117.8480224609375 32.9132080078125 166.66278076171875 76.21783447265625Q215.4775390625 119.5224609375 240.95220947265625 172.80682373046875Q266.4268798828125 226.0911865234375 276.57159423828125 288.200439453125Q286.71630859375 350.3096923828125 291.376220703125 418.2489013671875Z"/></g>
    <g transform="translate(100.75,49.00) scale(0.016500,-0.016500)"><path d="M63.2489013671875 331.7713623046875H446.578857421875V244.1475830078125H63.2489013671875ZM44.939208984375 667.162109375H533.020263671875V581.87841796875H44.939208984375ZM429.1678466796875 832.8118896484375 519.4920654296875 796.3704833984375Q495.8017578125 762.7105712890625 472.30682373046875 729.5658569335938Q448.8118896484375 696.421142578125 429.1519775390625 672.7713623046875L360.578857421875 703.862548828125Q372.5687255859375 721.862548828125 385.05352783203125 744.5173950195312Q397.538330078125 767.1722412109375 409.358154296875 790.662109375Q421.177978515625 814.1519775390625 429.1678466796875 832.8118896484375ZM239.79736328125 847.7510986328125H338.8118896484375V400.6295166015625H239.79736328125ZM73.15771484375 796.04052734375 150.0911865234375 827.822021484375Q170.4110107421875 798.8321533203125 187.90087890625 763.6773071289062Q205.3907470703125 728.5224609375 211.720703125 702.1925048828125L130.4268798828125 666.40087890625Q125.1070556640625 692.7308349609375 108.457275390625 729.220703125Q91.8074951171875 765.7105712890625 73.15771484375 796.04052734375ZM242.4775390625 632.380615234375 312.7105712890625 589.898681640625Q288.3704833984375 549.9189453125 250.36541748046875 509.09912109375Q212.3603515625 468.279296875 168.8603515625 433.45440673828125Q125.3603515625 398.6295166015625 82.700439453125 374.6295166015625Q73.6700439453125 392.3502197265625 57.95440673828125 415.9312744140625Q42.23876953125 439.5123291015625 27.1881103515625 453.8929443359375Q68.177978515625 471.2127685546875 109.1678466796875 499.3524169921875Q150.15771484375 527.4920654296875 185.65264892578125 562.12158203125Q221.1475830078125 596.7510986328125 242.4775390625 632.380615234375ZM325.44140625 608.6903076171875Q339.1114501953125 602.0303955078125 364.26629638671875 587.2156372070312Q389.421142578125 572.40087890625 418.40594482421875 555.421142578125Q447.3907470703125 538.44140625 471.2105712890625 523.6266479492188Q495.0303955078125 508.8118896484375 505.3603515625 501.48193359375L447.837890625 426.5687255859375Q434.497802734375 439.578857421875 412.01300048828125 458.4088134765625Q389.5281982421875 477.23876953125 363.718505859375 497.56365966796875Q337.9088134765625 517.8885498046875 314.259033203125 536.0535278320312Q290.6092529296875 554.218505859375 273.939208984375 565.2286376953125ZM606.2691650390625 659.8321533203125H955.76123046875V560.4775390625H606.2691650390625ZM616.858154296875 842.8017578125 714.8726806640625 828.421142578125Q700.542724609375 728.3704833984375 677.5325927734375 635.1497802734375Q654.5224609375 541.9290771484375 622.3372192382812 462.05352783203125Q590.1519775390625 382.177978515625 547.4515380859375 322.15771484375Q540.0911865234375 330.858154296875 525.7105712890625 344.07379150390625Q511.3299560546875 357.2894287109375 496.11431884765625 369.6700439453125Q480.898681640625 382.0506591796875 469.5281982421875 389.4110107421875Q509.538330078125 441.740966796875 538.2083740234375 513.5810546875Q566.87841796875 585.421142578125 586.3733520507812 669.4363403320312Q605.8682861328125 753.4515380859375 616.858154296875 842.8017578125ZM796.1273193359375 599.5889892578125 895.141845703125 590.898681640625Q873.8321533203125 420.55859375 829.6773071289062 290.718505859375Q785.5224609375 160.87841796875 707.3524169921875 66.71343994140625Q629.182373046875 -27.4515380859375 505.822021484375 -91.101318359375Q501.141845703125 -80.060791015625 491.27642822265625 -63.5Q481.4110107421875 -46.939208984375 470.04052734375 -30.37841796875Q458.6700439453125 -13.817626953125 449.3096923828125 -4.1171875Q562.95947265625 48.1722412109375 633.2640991210938 131.12664794921875Q703.5687255859375 214.0810546875 741.8682861328125 330.5303955078125Q780.1678466796875 446.979736328125 796.1273193359375 599.5889892578125ZM664.20263671875 577.259033203125Q686.1925048828125 450.340087890625 725.6722412109375 338.240966796875Q765.1519775390625 226.141845703125 827.7966918945312 140.682373046875Q890.44140625 55.222900390625 979.0911865234375 6.222900390625Q961.700439453125 -7.8277587890625 941.2944946289062 -32.9189453125Q920.8885498046875 -58.0101318359375 908.8480224609375 -78.0810546875Q813.837890625 -18.720703125 748.8480224609375 75.60418701171875Q683.858154296875 169.9290771484375 642.538330078125 293.57379150390625Q601.218505859375 417.218505859375 575.5484619140625 561.538330078125ZM88.4066162109375 148.9493408203125 151.939208984375 210.822021484375Q205.95947265625 190.141845703125 264.3096923828125 161.62664794921875Q322.659912109375 133.1114501953125 375.0101318359375 103.76123046875Q427.3603515625 74.4110107421875 464.0506591796875 48.7308349609375L399.8480224609375 -20.84228515625Q364.8277587890625 6.177978515625 312.4775390625 37.3682861328125Q260.1273193359375 68.55859375 201.44207763671875 98.078857421875Q142.7568359375 127.59912109375 88.4066162109375 148.9493408203125ZM413.1475830078125 331.7713623046875H431.2083740234375L447.5889892578125 335.1114501953125L505.8017578125 313.380615234375Q474.461669921875 201.6700439453125 412.6317138671875 123.30462646484375Q350.8017578125 44.939208984375 265.9515380859375 -4.921142578125Q181.101318359375 -54.781494140625 79.0303955078125 -82.8017578125Q71.6700439453125 -64.740966796875 57.62445068359375 -40.15484619140625Q43.578857421875 -15.5687255859375 30.538330078125 -1.51806640625Q122.23876953125 18.8118896484375 200.06365966796875 60.141845703125Q277.8885498046875 101.4718017578125 333.19317626953125 165.95660400390625Q388.497802734375 230.44140625 413.1475830078125 318.0709228515625ZM88.4066162109375 148.9493408203125Q111.416748046875 180.95947265625 135.26190185546875 222.3096923828125Q159.1070556640625 263.659912109375 180.7872314453125 307.68017578125Q202.4674072265625 351.700439453125 217.4775390625 391.720703125L311.8118896484375 373.9898681640625Q295.1317138671875 330.95947265625 272.9515380859375 286.10418701171875Q250.7713623046875 241.2489013671875 227.5911865234375 200.2286376953125Q204.4110107421875 159.2083740234375 183.7308349609375 127.51806640625Z"/></g>
    <g transform="translate(117.25,49.00) scale(0.016500,-0.016500)"><path d="M435.3907470703125 805.781494140625H930.421142578125V523.837890625H438.0709228515625V615.822021484375H828.7264404296875V713.79736328125H435.3907470703125ZM385.5484619140625 805.781494140625H489.5933837890625V500.4110107421875Q489.5933837890625 436.060791015625 485.25836181640625 359.200439453125Q480.92333984375 282.340087890625 467.91827392578125 202.1396484375Q454.9132080078125 121.939208984375 429.7431640625 47.08392333984375Q404.5731201171875 -27.7713623046875 363.5731201171875 -88.44140625Q354.542724609375 -78.740966796875 338.31695556640625 -66.52532958984375Q322.0911865234375 -54.3096923828125 305.0303955078125 -42.93414306640625Q287.9696044921875 -31.55859375 275.9290771484375 -26.538330078125Q314.2489013671875 30.1114501953125 336.07379150390625 96.7713623046875Q357.898681640625 163.4312744140625 368.55859375 234.26123046875Q379.218505859375 305.0911865234375 382.38348388671875 373.421142578125Q385.5484619140625 441.7510986328125 385.5484619140625 500.4110107421875ZM437.3603515625 429.3603515625H960.0303955078125V338.3863525390625H437.3603515625ZM528.822021484375 31.44140625H882.2894287109375V-54.5123291015625H528.822021484375ZM650.51806640625 533.1881103515625H751.542724609375V194.4876708984375H650.51806640625ZM484.68017578125 234.6295166015625H935.101318359375V-84.76123046875H838.096923828125V145.99560546875H577.664306640625V-86.740966796875H484.68017578125ZM23.59912109375 332.623779296875Q83.9493408203125 346.9334716796875 168.96453857421875 370.0731201171875Q253.979736328125 393.2127685546875 340.31982421875 418.182373046875L354.0303955078125 321.177978515625Q275.0303955078125 297.1982421875 194.85528564453125 273.05352783203125Q114.68017578125 248.9088134765625 47.9898681640625 229.259033203125ZM38.2894287109375 653.8524169921875H352.020263671875V554.837890625H38.2894287109375ZM149.1171875 846.0810546875H247.461669921875V39.984130859375Q247.461669921875 1.8929443359375 239.45660400390625 -20.17291259765625Q231.4515380859375 -42.23876953125 209.4110107421875 -54.9493408203125Q188.3704833984375 -67.659912109375 155.50506591796875 -71.67510986328125Q122.6396484375 -75.6903076171875 74.299560546875 -75.3603515625Q72.6295166015625 -55.619384765625 64.439208984375 -26.51300048828125Q56.2489013671875 2.5933837890625 46.218505859375 23.664306640625Q74.837890625 22.664306640625 99.1475830078125 22.664306640625Q123.457275390625 22.664306640625 132.457275390625 22.9942626953125Q141.457275390625 22.9942626953125 145.2872314453125 26.65924072265625Q149.1171875 30.32421875 149.1171875 40.6541748046875Z"/></g>
  </g>
</svg>
